<svg width="397" height="96" viewBox="0 0 397 96" fill="none" xmlns="http://www.w3.org/2000/svg">
<path d="M0 92.7093H32.6L36 77.0093C24.1 81.7093 12.1 86.6093 0.2 92.0093L0 92.7093Z" fill="#EC6F00"/>
<path d="M293.1 18.9093C278.4 20.2093 262.6 21.9093 246 24.1093L204 93.0093H234.4L241 80.9093H272.8L273.7 93.1093H304.9L293.1 18.9093ZM251 62.0093L268.4 29.8093L271.5 62.0093H251Z" fill="#EC6F00"/>
<path d="M320.2 16.9093C315.2 23.5093 305.4 40.5093 325.9 51.9093C331.6 55.2093 337.9 57.5093 344.4 58.8093C361.7 62.4093 360.9 67.1093 360.9 67.1093C360.9 67.1093 361.6 74.1093 346.2 74.5093C331.7 75.0093 333.6 65.0093 333.6 65.0093H303.5C303.5 65.0093 297.3 94.1093 339.9 94.2093C339.9 94.2093 376.8 95.1093 388.6 71.4093C388.6 71.4093 393.8 62.3093 391 54.8093C391 54.8093 388.4 42.6093 363.6 37.1093C363.6 37.1093 338.4 32.5093 345.5 23.9093C345.5 23.9093 348 21.0093 353.5 20.7093C353.5 20.7093 367.3 19.6093 366.8 28.7093L396.4 28.8093C397.1 24.2093 396.4 19.5093 394.5 15.3093C380.5 15.0093 354.4 14.8093 320.2 16.9093Z" fill="#EC6F00"/>
<path d="M97 67.1093C97 67.1093 97.7999 74.1093 82.2999 74.5093C67.7999 75.0093 69.7 65.0093 69.7 65.0093H69.1C59.5 68.3093 49.8 71.7093 40.2 75.4093C42.6 83.8093 50.6 94.1093 76 94.2093C76 94.2093 112.9 95.1093 124.7 71.4093C124.7 71.4093 129.9 62.3093 127.1 54.8093C127.1 54.8093 126.5 52.0093 123.2 48.5093C110.6 51.9093 97.9 55.6093 85 59.7093C97.7 63.2093 97 67.1093 97 67.1093Z" fill="#EC6F00"/>
<path d="M198.3 36.2093H226.4C227 33.1093 227.1 30.0093 226.7 26.9093C217.5 28.3093 208.1 29.9093 198.4 31.7093C198.5 33.2093 198.5 34.7093 198.3 36.2093Z" fill="#EC6F00"/>
<path d="M52.2 3.00928H21.3L5.09998 71.1093C16.6 66.6093 28.3 62.5093 40 58.7093L52.2 3.00928Z" fill="#AAAAA0"/>
<path d="M290.7 2.90935L259.1 2.70935L250.7 16.3094C265.2 14.9094 279.1 13.8093 292.2 13.0093L290.7 2.90935Z" fill="#AAAAA0"/>
<path d="M391.8 11.0093C391.5 10.5093 391.2 10.1093 390.8 9.70933C387.3 6.10933 381.9 3.10933 373.5 1.80933C373.5 1.80933 344.1 -2.69067 326.5 10.7093L325.7 11.4093C354.8 10.4093 377.7 10.6093 391.8 11.0093Z" fill="#AAAAA0"/>
<path d="M99.8 37.2093C99.8 37.2093 74.6 32.6093 81.7 24.0093C81.7 24.0093 84.2 21.1093 89.7 20.8093C89.7 20.8093 105.6 18.7093 103 28.8093L132.6 28.9093C133.3 24.1093 132.6 19.1093 130.4 14.7093C129.4 12.9093 128.2 11.2093 126.8 9.70933C123.3 6.10933 117.9 3.10933 109.5 1.80933C109.5 1.80933 80.1 -2.69067 62.5 10.7093C61.1 11.8093 59.8 12.9093 58.6 14.1093C58.6 14.1093 58.4 14.3093 58.1 14.6093C57.8 14.9093 57.3 15.5093 57 15.9093C52.5 21.7093 40.5 39.8093 61.9 51.8093C77.3 47.2093 92.8 43.2093 108.1 39.5093C105.4 38.6093 102.6 37.8093 99.8 37.2093Z" fill="#AAAAA0"/>
<path d="M173.7 26.4093C176.5 24.5093 179.7 23.2093 183.1 22.9093C185.9 22.4093 188.8 22.7093 191.5 23.7093C202.9 22.0093 214.1 20.5093 225 19.2093C223.6 15.2093 221.1 11.7093 217.9 9.00933C214.4 6.10933 210.5 3.80933 206.3 2.30933C201.8 0.609327 196.2 -0.0906733 189.4 0.00932674C183.4 0.209327 177.5 1.20933 171.8 3.00933C165 5.20933 158.6 8.60933 152.9 13.0093C146.8 17.5093 141.6 24.3093 137.3 33.3093C149.5 30.7093 161.6 28.4093 173.7 26.4093Z" fill="#AAAAA0"/>
<path d="M131 53.8093C130.1 59.6093 130.4 65.6093 131.7 71.3093C133 76.6093 135.8 81.5093 139.7 85.4093C143.7 89.5093 149.2 92.4093 156.2 94.2093C164.1 96.3093 172.8 96.3093 182.3 94.1093C191.8 91.9093 199.1 88.5093 204.2 83.7093C211.6 76.7093 217.4 68.1093 221.1 58.6093H193.6L190.6 63.4093C189.1 65.6093 187.1 67.5093 184.7 68.7093C181.1 71.0093 176.8 71.9093 172.6 71.3093C168.6 70.7093 165.7 69.2093 163.8 66.8093C161.9 64.3093 160.9 61.3093 160.8 58.2093C160.6 54.4093 161 50.7093 161.9 47.0093C162.5 44.1093 163.4 41.3093 164.5 38.5093C154 40.8093 143.3 43.4093 132.4 46.2093C131.8 48.7093 131.3 51.3093 131 53.8093Z" fill="#EC6F00"/>
</svg>
